<?xml version="1.0" encoding="UTF-8" standalone="no"?>
<!-- Created with Inkscape (http://www.inkscape.org/) -->

<svg
   width="255.3965"
   height="270.24805"
   viewBox="0 0 67.573655 71.503127"
   version="1.1"
   id="svg1"
   xmlns="http://www.w3.org/2000/svg"
   xmlns:svg="http://www.w3.org/2000/svg">
  <defs
     id="defs1" />
  <g
     id="layer1"
     transform="translate(-19.129839,-17.165102)">
    <path
       id="path1"
       style="fill:#6166d2;fill-opacity:1;stroke-width:0.264583"
       d="M 60.255493,17.165101 A 26.448223,26.448223 0 0 1 86.70349,43.613099 26.448223,26.448223 0 0 1 71.481681,67.560474 26.448223,26.448223 0 0 0 72.02635,62.219715 26.448223,26.448223 0 0 0 45.578353,35.771718 26.448223,26.448223 0 0 0 34.352165,38.27234 26.448223,26.448223 0 0 1 60.255493,17.165101 Z M 34.352165,38.27234 A 26.448223,26.448223 0 0 0 33.806979,43.613099 26.448223,26.448223 0 0 0 60.255493,70.061613 26.448223,26.448223 0 0 0 71.481681,67.560474 26.448223,26.448223 0 0 1 45.578353,88.668228 26.448223,26.448223 0 0 1 19.129839,62.219715 26.448223,26.448223 0 0 1 34.352165,38.27234 Z" />
  </g>
</svg>
